<?xml version="1.0" encoding="UTF-8" standalone="no"?>
<!-- Created with Inkscape (http://www.inkscape.org/) -->

<svg
   xmlns:dc="http://purl.org/dc/elements/1.1/"
   xmlns:cc="http://creativecommons.org/ns#"
   xmlns:rdf="http://www.w3.org/1999/02/22-rdf-syntax-ns#"
   xmlns:svg="http://www.w3.org/2000/svg"
   xmlns="http://www.w3.org/2000/svg"
   xmlns:xlink="http://www.w3.org/1999/xlink"
   xmlns:sodipodi="http://sodipodi.sourceforge.net/DTD/sodipodi-0.dtd"
   xmlns:inkscape="http://www.inkscape.org/namespaces/inkscape"
   width="1024"
   height="1024"
   id="svg2"
   version="1.1"
   inkscape:version="0.91 r13725"
   sodipodi:docname="logo.svg"
   inkscape:export-filename="/home/pst/sec/main/development/github/bible-reader/static-web-app-generator/logo2.png"
   inkscape:export-xdpi="300"
   inkscape:export-ydpi="300">
  <defs
     id="defs4">
    <linearGradient
       id="linearGradient3902">
      <stop
         style="stop-color:#ffffff;stop-opacity:1;"
         offset="0"
         id="stop3904" />
      <stop
         style="stop-color:#fff9f9;stop-opacity:0.72868216;"
         offset="1"
         id="stop3906" />
    </linearGradient>
    <linearGradient
       id="linearGradient4110">
      <stop
         style="stop-color:#ee2722;stop-opacity:1"
         offset="0"
         id="stop4112" />
      <stop
         style="stop-color:#a79b9e;stop-opacity:1"
         offset="1"
         id="stop4114" />
    </linearGradient>
    <inkscape:perspective
       sodipodi:type="inkscape:persp3d"
       inkscape:vp_x="-395.66113 : 161.97816 : 1"
       inkscape:vp_y="0 : 1971.1104 : 0"
       inkscape:vp_z="1589.8053 : 240.3786 : 1"
       inkscape:persp3d-origin="389.22784 : -74.246352 : 1"
       id="perspective4094" />
    <linearGradient
       id="linearGradient4483">
      <stop
         style="stop-color:#056aff;stop-opacity:1;"
         offset="0"
         id="stop4485" />
      <stop
         style="stop-color:#ffffff;stop-opacity:0;"
         offset="1"
         id="stop4487" />
    </linearGradient>
    <linearGradient
       inkscape:collect="always"
       xlink:href="#linearGradient4110"
       id="linearGradient4116"
       x1="665.625"
       y1="-58.748173"
       x2="456.25"
       y2="1093.1155"
       gradientUnits="userSpaceOnUse"
       gradientTransform="scale(1,1.001095)" />
    <linearGradient
       inkscape:collect="always"
       xlink:href="#linearGradient3902"
       id="linearGradient3908"
       x1="509.1376"
       y1="513.90118"
       x2="467.15973"
       y2="1029.1136"
       gradientUnits="userSpaceOnUse"
       gradientTransform="matrix(1.2524295,0,0,1.2524296,-146.91309,-129.30104)" />
    <linearGradient
       gradientUnits="userSpaceOnUse"
       y2="162.57005"
       x2="205.81252"
       y1="162.57005"
       x1="175.4157"
       id="linearGradient5642"
       xlink:href="#linearGradient5622" />
    <linearGradient
       id="linearGradient5622">
      <stop
         id="stop5624"
         offset="0"
         style="stop-color:#ffffff;stop-opacity:1;" />
      <stop
         id="stop5626"
         offset="1"
         style="stop-color:#ffffff;stop-opacity:0;" />
    </linearGradient>
    <linearGradient
       gradientUnits="userSpaceOnUse"
       y2="169.33896"
       x2="290.91232"
       y1="169.33896"
       x1="266.71194"
       id="linearGradient5636"
       xlink:href="#linearGradient5622" />
    <linearGradient
       gradientUnits="userSpaceOnUse"
       y2="162.52608"
       x2="205.9005"
       y1="162.52608"
       x1="175.4157"
       id="linearGradient5640"
       xlink:href="#linearGradient5622" />
    <linearGradient
       y2="169.80635"
       x2="290.39301"
       y1="169.80635"
       x1="266.45227"
       gradientUnits="userSpaceOnUse"
       id="linearGradient5666"
       xlink:href="#linearGradient5622" />
    <mask
       maskUnits="userSpaceOnUse"
       id="mask4300">
      <g
         id="g4302"
         transform="matrix(0.5649724,0,0,0.5649724,445.54508,-1009.2323)"
         style="fill:#ffffff">
        <path
           style="fill:#ffffff;fill-opacity:1"
           d="m -255.18484,3598.5738 c -65.89075,-0.4253 -133.31625,-3.6429 -171.28383,-8.1738 -35.62761,-4.2516 -75.24646,-12.6237 -101.97363,-21.5486 -19.91256,-6.6493 -47.54459,-19.4411 -66.12352,-30.6108 -37.44793,-22.5137 -72.20796,-52.2487 -98.54251,-84.2969 -24.29731,-29.5689 -41.20817,-56.8511 -55.47181,-89.4924 -6.61929,-15.1478 -8.38704,-19.8689 -11.92879,-31.8579 -16.20259,-54.8465 -23.54268,-107.7838 -26.58122,-191.706 -1.42838,-39.4507 -1.67596,-120.9647 -1.45114,-477.7704 0.16145,-256.2384 0.41117,-371.6315 0.83443,-385.5878 4.03548,-133.0627 14.45033,-200.8155 39.80624,-258.9554 22.87778,-52.4577 63.32922,-104.9173 108.81811,-141.1212 12.25925,-9.757 31.66981,-22.9097 46.90669,-31.7844 24.79601,-14.4423 54.99637,-27.5472 78.82329,-34.2039 41.36425,-11.5562 93.35603,-18.869 158.31851,-22.2681 28.5354,-1.493 42.80966,-1.8693 92.94472,-2.45 66.71195,-0.7727 774.97059,-0.3507 803.30789,0.4786 74.58713,2.1828 111.22328,5.1416 152.96045,12.3533 34.90069,6.0305 66.10255,14.5431 92.14805,25.1403 28.90007,11.7586 67.93807,35.6951 94.27249,57.8041 24.08118,20.2172 52.39634,51.696 69.50417,77.2697 27.40876,40.9722 44.92544,81.5642 54.48975,126.2709 2.0427,9.5481 7.5352,40.5742 9.5433,53.9079 4.7447,31.5043 7.3924,66.4897 8.9033,117.6415 0.8272,28.0023 1.2273,742.0895 0.4567,814.9924 -0.6825,64.5731 -1.8558,98.6886 -4.564,132.7029 -5.9213,74.3703 -21.87168,136.2374 -47.80384,185.4176 -7.83137,14.852 -18.80155,31.9295 -30.54535,47.5505 -23.00313,30.5976 -46.50391,54.389 -74.58963,75.5123 -48.63111,36.5753 -94.65909,56.7768 -158.32303,69.4872 -51.86283,10.3544 -93.05381,13.1537 -222.7503,15.1381 -27.97184,0.4279 -676.86617,0.5685 -740.10549,0.1603 z"
           id="path4304"
           inkscape:connector-curvature="0" />
        <path
           style="fill:#ffffff;fill-opacity:1"
           d="m -255.18484,3598.5738 c -65.89075,-0.4253 -133.31625,-3.6429 -171.28383,-8.1738 -35.62761,-4.2516 -75.24646,-12.6237 -101.97363,-21.5486 -19.91256,-6.6493 -47.54459,-19.4411 -66.12352,-30.6108 -37.44793,-22.5137 -72.20796,-52.2487 -98.54251,-84.2969 -24.29731,-29.5689 -41.20817,-56.8511 -55.47181,-89.4924 -6.61929,-15.1478 -8.38704,-19.8689 -11.92879,-31.8579 -16.20259,-54.8465 -23.54268,-107.7838 -26.58122,-191.706 -1.42838,-39.4507 -1.67596,-120.9647 -1.45114,-477.7704 0.16145,-256.2384 0.41117,-371.6315 0.83443,-385.5878 4.03548,-133.0627 14.45033,-200.8155 39.80624,-258.9554 22.87778,-52.4577 63.32922,-104.9173 108.81811,-141.1212 12.25925,-9.757 31.66981,-22.9097 46.90669,-31.7844 24.79601,-14.4423 54.99637,-27.5472 78.82329,-34.2039 41.36425,-11.5562 93.35603,-18.869 158.31851,-22.2681 28.5354,-1.493 42.80966,-1.8693 92.94472,-2.45 66.71195,-0.7727 774.97059,-0.3507 803.30789,0.4786 74.58713,2.1828 111.22328,5.1416 152.96045,12.3533 34.90069,6.0305 66.10255,14.5431 92.14805,25.1403 28.90007,11.7586 67.93807,35.6951 94.27249,57.8041 24.08118,20.2172 52.39634,51.696 69.50417,77.2697 27.40876,40.9722 44.92544,81.5642 54.48975,126.2709 2.0427,9.5481 7.5352,40.5742 9.5433,53.9079 4.7447,31.5043 7.3924,66.4897 8.9033,117.6415 0.8272,28.0023 1.2273,742.0895 0.4567,814.9924 -0.6825,64.5731 -1.8558,98.6886 -4.564,132.7029 -5.9213,74.3703 -21.87168,136.2374 -47.80384,185.4176 -7.83137,14.852 -18.80155,31.9295 -30.54535,47.5505 -23.00313,30.5976 -46.50391,54.389 -74.58963,75.5123 -48.63111,36.5753 -94.65909,56.7768 -158.32303,69.4872 -51.86283,10.3544 -93.05381,13.1537 -222.7503,15.1381 -27.97184,0.4279 -676.86617,0.5685 -740.10549,0.1603 z"
           id="path4306"
           inkscape:connector-curvature="0" />
        <path
           style="fill:#ffffff;fill-opacity:1"
           d="m -255.18484,3598.5738 c -65.89075,-0.4253 -133.31625,-3.6429 -171.28383,-8.1738 -35.62761,-4.2516 -75.24646,-12.6237 -101.97363,-21.5486 -19.91256,-6.6493 -47.54459,-19.4411 -66.12352,-30.6108 -37.44793,-22.5137 -72.20796,-52.2487 -98.54251,-84.2969 -24.29731,-29.5689 -41.20817,-56.8511 -55.47181,-89.4924 -6.61929,-15.1478 -8.38704,-19.8689 -11.92879,-31.8579 -16.20259,-54.8465 -23.54268,-107.7838 -26.58122,-191.706 -1.42838,-39.4507 -1.67596,-120.9647 -1.45114,-477.7704 0.16145,-256.2384 0.41117,-371.6315 0.83443,-385.5878 4.03548,-133.0627 14.45033,-200.8155 39.80624,-258.9554 22.87778,-52.4577 63.32922,-104.9173 108.81811,-141.1212 12.25925,-9.757 31.66981,-22.9097 46.90669,-31.7844 24.79601,-14.4423 54.99637,-27.5472 78.82329,-34.2039 41.36425,-11.5562 93.35603,-18.869 158.31851,-22.2681 28.5354,-1.493 42.80966,-1.8693 92.94472,-2.45 66.71195,-0.7727 774.97059,-0.3507 803.30789,0.4786 74.58713,2.1828 111.22328,5.1416 152.96045,12.3533 34.90069,6.0305 66.10255,14.5431 92.14805,25.1403 28.90007,11.7586 67.93807,35.6951 94.27249,57.8041 24.08118,20.2172 52.39634,51.696 69.50417,77.2697 27.40876,40.9722 44.92544,81.5642 54.48975,126.2709 2.0427,9.5481 7.5352,40.5742 9.5433,53.9079 4.7447,31.5043 7.3924,66.4897 8.9033,117.6415 0.8272,28.0023 1.2273,742.0895 0.4567,814.9924 -0.6825,64.5731 -1.8558,98.6886 -4.564,132.7029 -5.9213,74.3703 -21.87168,136.2374 -47.80384,185.4176 -7.83137,14.852 -18.80155,31.9295 -30.54535,47.5505 -23.00313,30.5976 -46.50391,54.389 -74.58963,75.5123 -48.63111,36.5753 -94.65909,56.7768 -158.32303,69.4872 -51.86283,10.3544 -93.05381,13.1537 -222.7503,15.1381 -27.97184,0.4279 -676.86617,0.5685 -740.10549,0.1603 z"
           id="path4308"
           inkscape:connector-curvature="0" />
        <path
           style="fill:#ffffff;fill-opacity:1"
           d="m -255.18484,3598.5738 c -65.89075,-0.4253 -133.31625,-3.6429 -171.28383,-8.1738 -35.62761,-4.2516 -75.24646,-12.6237 -101.97363,-21.5486 -19.91256,-6.6493 -47.54459,-19.4411 -66.12352,-30.6108 -37.44793,-22.5137 -72.20796,-52.2487 -98.54251,-84.2969 -24.29731,-29.5689 -41.20817,-56.8511 -55.47181,-89.4924 -6.61929,-15.1478 -8.38704,-19.8689 -11.92879,-31.8579 -16.20259,-54.8465 -23.54268,-107.7838 -26.58122,-191.706 -1.42838,-39.4507 -1.67596,-120.9647 -1.45114,-477.7704 0.16145,-256.2384 0.41117,-371.6315 0.83443,-385.5878 4.03548,-133.0627 14.45033,-200.8155 39.80624,-258.9554 22.87778,-52.4577 63.32922,-104.9173 108.81811,-141.1212 12.25925,-9.757 31.66981,-22.9097 46.90669,-31.7844 24.79601,-14.4423 54.99637,-27.5472 78.82329,-34.2039 41.36425,-11.5562 93.35603,-18.869 158.31851,-22.2681 28.5354,-1.493 42.80966,-1.8693 92.94472,-2.45 66.71195,-0.7727 774.97059,-0.3507 803.30789,0.4786 74.58713,2.1828 111.22328,5.1416 152.96045,12.3533 34.90069,6.0305 66.10255,14.5431 92.14805,25.1403 28.90007,11.7586 67.93807,35.6951 94.27249,57.8041 24.08118,20.2172 52.39634,51.696 69.50417,77.2697 27.40876,40.9722 44.92544,81.5642 54.48975,126.2709 2.0427,9.5481 7.5352,40.5742 9.5433,53.9079 4.7447,31.5043 7.3924,66.4897 8.9033,117.6415 0.8272,28.0023 1.2273,742.0895 0.4567,814.9924 -0.6825,64.5731 -1.8558,98.6886 -4.564,132.7029 -5.9213,74.3703 -21.87168,136.2374 -47.80384,185.4176 -7.83137,14.852 -18.80155,31.9295 -30.54535,47.5505 -23.00313,30.5976 -46.50391,54.389 -74.58963,75.5123 -48.63111,36.5753 -94.65909,56.7768 -158.32303,69.4872 -51.86283,10.3544 -93.05381,13.1537 -222.7503,15.1381 -27.97184,0.4279 -676.86617,0.5685 -740.10549,0.1603 z"
           id="path4310"
           inkscape:connector-curvature="0" />
        <path
           style="fill:#ffffff;fill-opacity:1"
           d="m -255.18484,3598.5738 c -65.89075,-0.4253 -133.31625,-3.6429 -171.28383,-8.1738 -35.62761,-4.2516 -75.24646,-12.6237 -101.97363,-21.5486 -19.91256,-6.6493 -47.54459,-19.4411 -66.12352,-30.6108 -37.44793,-22.5137 -72.20796,-52.2487 -98.54251,-84.2969 -24.29731,-29.5689 -41.20817,-56.8511 -55.47181,-89.4924 -6.61929,-15.1478 -8.38704,-19.8689 -11.92879,-31.8579 -16.20259,-54.8465 -23.54268,-107.7838 -26.58122,-191.706 -1.42838,-39.4507 -1.67596,-120.9647 -1.45114,-477.7704 0.16145,-256.2384 0.41117,-371.6315 0.83443,-385.5878 4.03548,-133.0627 14.45033,-200.8155 39.80624,-258.9554 22.87778,-52.4577 63.32922,-104.9173 108.81811,-141.1212 12.25925,-9.757 31.66981,-22.9097 46.90669,-31.7844 24.79601,-14.4423 54.99637,-27.5472 78.82329,-34.2039 41.36425,-11.5562 93.35603,-18.869 158.31851,-22.2681 28.5354,-1.493 42.80966,-1.8693 92.94472,-2.45 66.71195,-0.7727 774.97059,-0.3507 803.30789,0.4786 74.58713,2.1828 111.22328,5.1416 152.96045,12.3533 34.90069,6.0305 66.10255,14.5431 92.14805,25.1403 28.90007,11.7586 67.93807,35.6951 94.27249,57.8041 24.08118,20.2172 52.39634,51.696 69.50417,77.2697 27.40876,40.9722 44.92544,81.5642 54.48975,126.2709 2.0427,9.5481 7.5352,40.5742 9.5433,53.9079 4.7447,31.5043 7.3924,66.4897 8.9033,117.6415 0.8272,28.0023 1.2273,742.0895 0.4567,814.9924 -0.6825,64.5731 -1.8558,98.6886 -4.564,132.7029 -5.9213,74.3703 -21.87168,136.2374 -47.80384,185.4176 -7.83137,14.852 -18.80155,31.9295 -30.54535,47.5505 -23.00313,30.5976 -46.50391,54.389 -74.58963,75.5123 -48.63111,36.5753 -94.65909,56.7768 -158.32303,69.4872 -51.86283,10.3544 -93.05381,13.1537 -222.7503,15.1381 -27.97184,0.4279 -676.86617,0.5685 -740.10549,0.1603 z"
           id="path4312"
           inkscape:connector-curvature="0" />
        <path
           style="fill:#ffffff;fill-opacity:1"
           d="m -255.18484,3598.5738 c -65.89075,-0.4253 -133.31625,-3.6429 -171.28383,-8.1738 -35.62761,-4.2516 -75.24646,-12.6237 -101.97363,-21.5486 -19.91256,-6.6493 -47.54459,-19.4411 -66.12352,-30.6108 -37.44793,-22.5137 -72.20796,-52.2487 -98.54251,-84.2969 -24.29731,-29.5689 -41.20817,-56.8511 -55.47181,-89.4924 -6.61929,-15.1478 -8.38704,-19.8689 -11.92879,-31.8579 -16.20259,-54.8465 -23.54268,-107.7838 -26.58122,-191.706 -1.42838,-39.4507 -1.67596,-120.9647 -1.45114,-477.7704 0.16145,-256.2384 0.41117,-371.6315 0.83443,-385.5878 4.03548,-133.0627 14.45033,-200.8155 39.80624,-258.9554 22.87778,-52.4577 63.32922,-104.9173 108.81811,-141.1212 12.25925,-9.757 31.66981,-22.9097 46.90669,-31.7844 24.79601,-14.4423 54.99637,-27.5472 78.82329,-34.2039 41.36425,-11.5562 93.35603,-18.869 158.31851,-22.2681 28.5354,-1.493 42.80966,-1.8693 92.94472,-2.45 66.71195,-0.7727 774.97059,-0.3507 803.30789,0.4786 74.58713,2.1828 111.22328,5.1416 152.96045,12.3533 34.90069,6.0305 66.10255,14.5431 92.14805,25.1403 28.90007,11.7586 67.93807,35.6951 94.27249,57.8041 24.08118,20.2172 52.39634,51.696 69.50417,77.2697 27.40876,40.9722 44.92544,81.5642 54.48975,126.2709 2.0427,9.5481 7.5352,40.5742 9.5433,53.9079 4.7447,31.5043 7.3924,66.4897 8.9033,117.6415 0.8272,28.0023 1.2273,742.0895 0.4567,814.9924 -0.6825,64.5731 -1.8558,98.6886 -4.564,132.7029 -5.9213,74.3703 -21.87168,136.2374 -47.80384,185.4176 -7.83137,14.852 -18.80155,31.9295 -30.54535,47.5505 -23.00313,30.5976 -46.50391,54.389 -74.58963,75.5123 -48.63111,36.5753 -94.65909,56.7768 -158.32303,69.4872 -51.86283,10.3544 -93.05381,13.1537 -222.7503,15.1381 -27.97184,0.4279 -676.86617,0.5685 -740.10549,0.1603 z"
           id="path4314"
           inkscape:connector-curvature="0" />
        <path
           style="fill:#ffffff;fill-opacity:1"
           d="m -255.18484,3598.5738 c -65.89075,-0.4253 -133.31625,-3.6429 -171.28383,-8.1738 -35.62761,-4.2516 -75.24646,-12.6237 -101.97363,-21.5486 -19.91256,-6.6493 -47.54459,-19.4411 -66.12352,-30.6108 -37.44793,-22.5137 -72.20796,-52.2487 -98.54251,-84.2969 -24.29731,-29.5689 -41.20817,-56.8511 -55.47181,-89.4924 -6.61929,-15.1478 -8.38704,-19.8689 -11.92879,-31.8579 -16.20259,-54.8465 -23.54268,-107.7838 -26.58122,-191.706 -1.42838,-39.4507 -1.67596,-120.9647 -1.45114,-477.7704 0.16145,-256.2384 0.41117,-371.6315 0.83443,-385.5878 4.03548,-133.0627 14.45033,-200.8155 39.80624,-258.9554 22.87778,-52.4577 63.32922,-104.9173 108.81811,-141.1212 12.25925,-9.757 31.66981,-22.9097 46.90669,-31.7844 24.79601,-14.4423 54.99637,-27.5472 78.82329,-34.2039 41.36425,-11.5562 93.35603,-18.869 158.31851,-22.2681 28.5354,-1.493 42.80966,-1.8693 92.94472,-2.45 66.71195,-0.7727 774.97059,-0.3507 803.30789,0.4786 74.58713,2.1828 111.22328,5.1416 152.96045,12.3533 34.90069,6.0305 66.10255,14.5431 92.14805,25.1403 28.90007,11.7586 67.93807,35.6951 94.27249,57.8041 24.08118,20.2172 52.39634,51.696 69.50417,77.2697 27.40876,40.9722 44.92544,81.5642 54.48975,126.2709 2.0427,9.5481 7.5352,40.5742 9.5433,53.9079 4.7447,31.5043 7.3924,66.4897 8.9033,117.6415 0.8272,28.0023 1.2273,742.0895 0.4567,814.9924 -0.6825,64.5731 -1.8558,98.6886 -4.564,132.7029 -5.9213,74.3703 -21.87168,136.2374 -47.80384,185.4176 -7.83137,14.852 -18.80155,31.9295 -30.54535,47.5505 -23.00313,30.5976 -46.50391,54.389 -74.58963,75.5123 -48.63111,36.5753 -94.65909,56.7768 -158.32303,69.4872 -51.86283,10.3544 -93.05381,13.1537 -222.7503,15.1381 -27.97184,0.4279 -676.86617,0.5685 -740.10549,0.1603 z"
           id="path4316"
           inkscape:connector-curvature="0" />
        <path
           style="fill:#ffffff;fill-opacity:1"
           d="m -255.18484,3598.5738 c -65.89075,-0.4253 -133.31625,-3.6429 -171.28383,-8.1738 -35.62761,-4.2516 -75.24646,-12.6237 -101.97363,-21.5486 -19.91256,-6.6493 -47.54459,-19.4411 -66.12352,-30.6108 -37.44793,-22.5137 -72.20796,-52.2487 -98.54251,-84.2969 -24.29731,-29.5689 -41.20817,-56.8511 -55.47181,-89.4924 -6.61929,-15.1478 -8.38704,-19.8689 -11.92879,-31.8579 -16.20259,-54.8465 -23.54268,-107.7838 -26.58122,-191.706 -1.42838,-39.4507 -1.67596,-120.9647 -1.45114,-477.7704 0.16145,-256.2384 0.41117,-371.6315 0.83443,-385.5878 4.03548,-133.0627 14.45033,-200.8155 39.80624,-258.9554 22.87778,-52.4577 63.32922,-104.9173 108.81811,-141.1212 12.25925,-9.757 31.66981,-22.9097 46.90669,-31.7844 24.79601,-14.4423 54.99637,-27.5472 78.82329,-34.2039 41.36425,-11.5562 93.35603,-18.869 158.31851,-22.2681 28.5354,-1.493 42.80966,-1.8693 92.94472,-2.45 66.71195,-0.7727 774.97059,-0.3507 803.30789,0.4786 74.58713,2.1828 111.22328,5.1416 152.96045,12.3533 34.90069,6.0305 66.10255,14.5431 92.14805,25.1403 28.90007,11.7586 67.93807,35.6951 94.27249,57.8041 24.08118,20.2172 52.39634,51.696 69.50417,77.2697 27.40876,40.9722 44.92544,81.5642 54.48975,126.2709 2.0427,9.5481 7.5352,40.5742 9.5433,53.9079 4.7447,31.5043 7.3924,66.4897 8.9033,117.6415 0.8272,28.0023 1.2273,742.0895 0.4567,814.9924 -0.6825,64.5731 -1.8558,98.6886 -4.564,132.7029 -5.9213,74.3703 -21.87168,136.2374 -47.80384,185.4176 -7.83137,14.852 -18.80155,31.9295 -30.54535,47.5505 -23.00313,30.5976 -46.50391,54.389 -74.58963,75.5123 -48.63111,36.5753 -94.65909,56.7768 -158.32303,69.4872 -51.86283,10.3544 -93.05381,13.1537 -222.7503,15.1381 -27.97184,0.4279 -676.86617,0.5685 -740.10549,0.1603 z"
           id="path4318"
           inkscape:connector-curvature="0" />
      </g>
    </mask>
  </defs>
  <sodipodi:namedview
     id="base"
     pagecolor="#ffffff"
     bordercolor="#666666"
     borderopacity="1.0"
     inkscape:pageopacity="0.0"
     inkscape:pageshadow="2"
     inkscape:zoom="0.64000003"
     inkscape:cx="62.568967"
     inkscape:cy="569.45379"
     inkscape:document-units="px"
     inkscape:current-layer="layer5"
     showgrid="false"
     showguides="true"
     inkscape:guide-bbox="true"
     fit-margin-top="0"
     fit-margin-left="0"
     fit-margin-right="0"
     fit-margin-bottom="0"
     inkscape:window-width="1920"
     inkscape:window-height="1062"
     inkscape:window-x="1214"
     inkscape:window-y="0"
     inkscape:window-maximized="1"
     inkscape:showpageshadow="false"
     borderlayer="true"
     showborder="false"
     inkscape:snap-global="false"
     inkscape:snap-page="false"
     inkscape:snap-bbox="true">
    <sodipodi:guide
       orientation="0,1"
       position="-10.429825,956.71547"
       id="guide3101" />
    <sodipodi:guide
       orientation="1,0"
       position="956.5625,59.8125"
       id="guide3103" />
    <sodipodi:guide
       orientation="0,1"
       position="1246.875,315.625"
       id="guide3105" />
    <sodipodi:guide
       orientation="1,0"
       position="67.351921,64.523494"
       id="guide3107" />
    <sodipodi:guide
       orientation="0,1"
       position="961.5,67.5"
       id="guide3109" />
    <sodipodi:guide
       orientation="1,0"
       position="319.08193,67.707547"
       id="guide3111" />
    <sodipodi:guide
       orientation="1,0"
       position="511.68014,67.707547"
       id="guide3113" />
    <sodipodi:guide
       orientation="1,0"
       position="706.1875,64.734375"
       id="guide3115" />
    <sodipodi:guide
       orientation="0,1"
       position="197.76892,1024.1999"
       id="guide3117" />
    <sodipodi:guide
       orientation="0,1"
       position="0,0"
       id="guide3119" />
    <sodipodi:guide
       orientation="1,0"
       position="0,1042.6289"
       id="guide3121" />
    <sodipodi:guide
       orientation="0,1"
       position="-6.8942911,705"
       id="guide3123" />
    <sodipodi:guide
       orientation="1,0"
       position="1024,1037.75"
       id="guide3125" />
    <sodipodi:guide
       orientation="0,1"
       position="-27.223611,512.65241"
       id="guide3127" />
    <inkscape:grid
       type="xygrid"
       id="grid4235"
       empspacing="5"
       visible="true"
       enabled="true"
       snapvisiblegridlinesonly="true" />
    <sodipodi:guide
       orientation="1,0"
       position="511.68014,430.8932"
       id="guide4003" />
  </sodipodi:namedview>
  <metadata
     id="metadata7">
    <rdf:RDF>
      <cc:Work
         rdf:about="">
        <dc:format>image/svg+xml</dc:format>
        <dc:type
           rdf:resource="http://purl.org/dc/dcmitype/StillImage" />
        <dc:title />
      </cc:Work>
    </rdf:RDF>
  </metadata>
  <g
     inkscape:groupmode="layer"
     id="layer5"
     inkscape:label="Background"
     style="display:inline;opacity:1">
    <rect
       style="color:#000000;display:inline;overflow:visible;visibility:visible;fill:url(#linearGradient4116);fill-opacity:1;fill-rule:nonzero;stroke:none;stroke-width:2;marker:none;enable-background:accumulate"
       id="rect4108"
       width="1024"
       height="1024"
       x="0"
       y="1.5099033e-14"
       mask="url(#mask4300)" />
  </g>
  <g
     inkscape:groupmode="layer"
     id="layer3"
     inkscape:label="Layer"
     style="display:inline;opacity:0.77165354">
    <g
       id="g3061">
      <g
         inkscape:corner7="-0.059095309 : 0.23170886 : 0.66863098 : 1"
         inkscape:corner0="0.55545974 : 0.45292785 : 0 : 1"
         inkscape:perspectiveID="#perspective4094"
         id="g3047"
         style="fill:#231f20;fill-opacity:1;stroke:none"
         sodipodi:type="inkscape:box3d">
        <path
           d="m 554.13526,543.25461 362.65252,-121.71213 0,270.91481 -362.65252,46.85364 z"
           inkscape:box3dsidetype="11"
           style="fill:#e9e9ff;fill-rule:evenodd;stroke:none"
           id="path3059"
           sodipodi:type="inkscape:box3dside"
           points="916.78778,421.54248 916.78778,692.45729 554.13526,739.31093 554.13526,543.25461 " />
        <path
           d="m 108.94143,439.93037 0,280.33323 445.19383,19.04733 0,-196.05632 z"
           inkscape:box3dsidetype="6"
           style="fill:#353564;fill-rule:evenodd;stroke:none"
           id="path3049"
           sodipodi:type="inkscape:box3dside"
           points="108.94143,720.2636 554.13526,739.31093 554.13526,543.25461 108.94143,439.93037 " />
        <path
           d="M 108.94143,439.93037 438.52428,164.23992 916.78778,421.54248 554.13526,543.25461 Z"
           inkscape:box3dsidetype="5"
           style="fill:#4d4d9f;fill-rule:evenodd;stroke:none"
           id="path3051"
           sodipodi:type="inkscape:box3dside"
           points="438.52428,164.23992 916.78778,421.54248 554.13526,543.25461 108.94143,439.93037 " />
        <path
           d="m 108.94143,720.2636 329.58285,-92.58987 478.2635,64.78356 -362.65252,46.85364 z"
           inkscape:box3dsidetype="13"
           style="fill:#000000;fill-rule:evenodd;stroke:none"
           id="path3057"
           sodipodi:type="inkscape:box3dside"
           points="438.52428,627.67373 916.78778,692.45729 554.13526,739.31093 108.94143,720.2636 " />
        <path
           d="m 438.52428,164.23992 0,463.43381 478.2635,64.78356 0,-270.91481 z"
           inkscape:box3dsidetype="14"
           style="fill:#bdbcbc;fill-rule:evenodd;stroke:none"
           id="path3055"
           sodipodi:type="inkscape:box3dside"
           points="438.52428,627.67373 916.78778,692.45729 916.78778,421.54248 438.52428,164.23992 " />
        <path
           d="m 108.94143,439.93037 329.58285,-275.69045 0,463.43381 -329.58285,92.58987 z"
           inkscape:box3dsidetype="3"
           style="fill:#656263;fill-rule:evenodd;stroke:none"
           id="path3053"
           sodipodi:type="inkscape:box3dside"
           points="438.52428,164.23992 438.52428,627.67373 108.94143,720.2636 108.94143,439.93037 " />
      </g>
    </g>
    <rect
       ry="230.03317"
       y="-0.37250254"
       x="-0.43269444"
       height="1024.3724"
       width="1024.2607"
       id="rect4161"
       style="opacity:1;fill:#724114;fill-opacity:1;stroke:none;stroke-width:0.9103511;stroke-linecap:butt;stroke-linejoin:round;stroke-miterlimit:4;stroke-dasharray:none;stroke-opacity:1"
       rx="0" />
    <path
       style="opacity:1;fill:#fbf1ac;fill-opacity:1;stroke:#dbca4f;stroke-width:4.17233706;stroke-linecap:butt;stroke-linejoin:round;stroke-miterlimit:4;stroke-dasharray:none;stroke-opacity:1"
       d="m 234.33612,16.805122 c 200.64111,2.196333 401.66675,-4.546924 602.06116,3.656781 116.53415,21.529797 193.80832,146.062647 174.43962,260.587537 -1.7721,184.36684 4.4607,369.1169 -3.5356,553.23571 -21.54185,116.60412 -146.18178,193.83825 -260.74831,174.43505 -185.1896,-1.7723 -370.76223,4.4601 -555.70399,-3.5349 C 74.331137,983.65785 -2.9513803,859.14918 16.408915,744.63437 18.065727,560.90482 12.192675,376.83619 19.739142,193.32649 37.847114,94.205346 132.8612,13.825725 234.33612,16.805122 Z"
       id="rect4163"
       inkscape:connector-curvature="0" />
    <path
       style="opacity:1;fill:#fbf1ac;fill-opacity:1;stroke:#dbca4f;stroke-width:4.17233706;stroke-linecap:butt;stroke-linejoin:round;stroke-miterlimit:4;stroke-dasharray:none;stroke-opacity:1"
       d="m 227.97207,16.797121 c 203.36617,2.147965 407.10602,-4.438736 610.23283,3.556553 113.50055,20.98438 188.3055,142.474556 169.3037,253.876466 -1.7293,181.8823 4.348,364.13812 -3.4424,545.77886 -21.07153,113.99985 -143.3238,188.5128 -255.02068,169.27039 -187.73729,-1.73527 -375.8469,4.35613 -563.34376,-3.43766 C 72.21764,964.85978 -2.5957673,843.39404 16.397425,732.00227 18.009279,550.76444 12.299205,369.19769 19.630519,188.17295 37.210654,91.941157 129.4551,13.904575 227.97207,16.797121 Z"
       id="rect4165"
       inkscape:connector-curvature="0" />
    <path
       style="opacity:1;fill:#fbf1ac;fill-opacity:1;stroke:#dbca4f;stroke-width:4.17233706;stroke-linecap:butt;stroke-linejoin:round;stroke-miterlimit:4;stroke-dasharray:none;stroke-opacity:1"
       d="m 235.14876,16.785246 c 198.31752,2.234123 397.03027,-4.629604 595.09397,3.730375 118.63367,22.169095 195.40627,150.558029 174.49017,266.511059 -2.6135,170.33627 7.028,341.4054 -5.73905,511.25336 -27.49465,115.01232 -153.78719,184.54201 -267.02326,164.55511 -180.27925,-1.7809 -360.952,4.52635 -540.9761,-3.60214 C 72.547806,937.10225 -4.1928159,809.06161 16.393897,693.25222 19.188419,523.73793 9.7530336,353.32967 21.748849,184.38205 44.08987,89.281964 136.58847,13.930792 235.14876,16.785246 Z"
       id="rect4167"
       inkscape:connector-curvature="0" />
    <path
       style="opacity:1;fill:#fbf1ac;fill-opacity:1;stroke:#dbca4f;stroke-width:4.17233706;stroke-linecap:butt;stroke-linejoin:round;stroke-miterlimit:4;stroke-dasharray:none;stroke-opacity:1"
       d="m 232.05996,16.773308 c 198.12096,2.206433 396.63128,-4.569917 594.50232,3.678569 116.59716,21.79354 192.55612,147.799173 172.06501,261.919703 -2.5662,163.89746 6.91661,328.52103 -5.67075,491.93369 C 965.76897,888.00023 840.7883,956.38112 728.95817,936.50971 548.86724,934.74991 368.38839,940.97949 188.54883,932.95686 71.976245,911.16758 -3.9886619,785.20258 16.477715,671.09876 18.833952,508.12407 10.058136,344.5273 21.702992,181.96915 43.660773,88.175873 134.92613,13.997235 232.05996,16.773308 Z"
       id="rect4171"
       inkscape:connector-curvature="0" />
    <rect
       style="opacity:1;fill:#724114;fill-opacity:1;stroke:none;stroke-width:0.90844369;stroke-linecap:butt;stroke-linejoin:round;stroke-miterlimit:4;stroke-dasharray:none;stroke-opacity:1"
       id="rect4152"
       width="994.27692"
       height="910.51587"
       x="8.7890854"
       y="-0.023388959"
       ry="225.87187" />
    <flowRoot
       xml:space="preserve"
       id="flowRoot4147"
       style="font-style:normal;font-weight:normal;font-size:50px;line-height:125%;font-family:Sans;letter-spacing:0px;word-spacing:0px;fill:#faec8f;fill-opacity:1;stroke:none;stroke-width:1px;stroke-linecap:butt;stroke-linejoin:miter;stroke-opacity:1"
       transform="matrix(10.674962,0,0,7.9042772,-2242.8294,-1083.5936)"><flowRegion
         id="flowRegion4149"
         style="fill:url(#linearGradient5666);fill-opacity:1"><rect
           id="rect4151"
           width="118.18785"
           height="97.984795"
           x="174.75639"
           y="136.15384"
           style="font-size:50px;fill:#faec8f;fill-opacity:1" /></flowRegion><flowPara
         id="flowPara4153"
         style="font-style:normal;font-variant:normal;font-weight:normal;font-stretch:normal;font-size:51.9321785px;font-family:FreeSerif;-inkscape-font-specification:FreeSerif;fill:#faec8f;fill-opacity:1">א</flowPara></flowRoot>    <flowRoot
       transform="matrix(8.9491941,0,0,8.0690574,-968.72932,-677.61201)"
       style="font-style:normal;font-weight:normal;font-size:50px;line-height:125%;font-family:Sans;letter-spacing:0px;word-spacing:0px;fill:#faec8f;fill-opacity:1;stroke:none;stroke-width:1px;stroke-linecap:butt;stroke-linejoin:miter;stroke-opacity:1"
       id="flowRoot4179"
       xml:space="preserve"><flowRegion
         id="flowRegion4181"
         style="fill:url(#linearGradient5640);fill-opacity:1"><rect
           style="font-size:50px;fill:#faec8f;fill-opacity:1"
           y="136.15384"
           x="174.75639"
           height="97.984795"
           width="118.18785"
           id="rect4183" /></flowRegion><flowPara
         style="font-style:normal;font-variant:normal;font-weight:normal;font-stretch:normal;font-size:43.98960876px;font-family:FreeSerif;-inkscape-font-specification:FreeSerif;fill:#faec8f;fill-opacity:1"
         id="flowPara4185">Ω</flowPara></flowRoot>    <flowRoot
       xml:space="preserve"
       id="flowRoot4187"
       style="font-style:normal;font-weight:normal;font-size:50px;line-height:125%;font-family:Sans;letter-spacing:0px;word-spacing:0px;fill:#faec8f;fill-opacity:1;stroke:none;stroke-width:1px;stroke-linecap:butt;stroke-linejoin:miter;stroke-opacity:1"
       transform="matrix(10.537728,0,0,7.7995087,-2598.6727,-684.07027)"><flowRegion
         id="flowRegion4189"
         style="fill:url(#linearGradient5636);fill-opacity:1"><rect
           id="rect4191"
           width="118.18785"
           height="97.984795"
           x="174.75639"
           y="136.15384"
           style="font-size:50px;fill:#faec8f;fill-opacity:1" /></flowRegion><flowPara
         id="flowPara4193"
         style="font-style:normal;font-variant:normal;font-weight:normal;font-stretch:normal;font-size:51.9321785px;font-family:FreeSerif;-inkscape-font-specification:FreeSerif;fill:#faec8f;fill-opacity:1">ת</flowPara></flowRoot>    <flowRoot
       transform="matrix(8.9806491,0,0,7.9042772,-1372.822,-1022.4072)"
       style="font-style:normal;font-weight:normal;font-size:50px;line-height:125%;font-family:Sans;letter-spacing:0px;word-spacing:0px;fill:#faec8f;fill-opacity:1;stroke:none;stroke-width:1px;stroke-linecap:butt;stroke-linejoin:miter;stroke-opacity:1"
       id="flowRoot4195"
       xml:space="preserve"><flowRegion
         id="flowRegion4197"
         style="fill:url(#linearGradient5642);fill-opacity:1"><rect
           style="font-size:50px;fill:#faec8f;fill-opacity:1;stroke:none;stroke-opacity:1"
           y="136.15384"
           x="174.75639"
           height="49.732288"
           width="33.275219"
           id="rect4199" /></flowRegion><flowPara
         style="font-style:normal;font-variant:normal;font-weight:normal;font-stretch:normal;font-size:43.98960876px;font-family:FreeSerif;-inkscape-font-specification:FreeSerif;fill:#faec8f;fill-opacity:1;stroke:none;stroke-opacity:1"
         id="flowPara4201">Α</flowPara></flowRoot>    <rect
       ry="204.77063"
       y="22.10993"
       x="98.75724"
       height="866.24927"
       width="880.62"
       id="rect4173"
       style="opacity:1;fill:none;fill-opacity:1;stroke:#fbf1ac;stroke-width:5;stroke-linecap:round;stroke-linejoin:round;stroke-miterlimit:4;stroke-dasharray:30, 30;stroke-dashoffset:0;stroke-opacity:1" />
    <path
       inkscape:connector-curvature="0"
       style="fill:#724114;fill-opacity:1;fill-rule:evenodd;stroke:none;stroke-width:1px;stroke-linecap:butt;stroke-linejoin:miter;stroke-opacity:1"
       d="M 145.14016,1000.6544 C 82.409976,974.48665 0.42708748,921.95598 -0.00990711,748.18587 -0.30934336,629.12531 206.4974,908.92597 206.4974,908.92597 39.603881,898.45538 32.824017,918.7979 145.14016,1000.6544 Z"
       id="path4177"
       sodipodi:nodetypes="cscc" />
  </g>
  <g
     inkscape:label="BORDER"
     inkscape:groupmode="layer"
     id="layer1"
     transform="translate(50.25,211.52169)"
     style="display:none"
     sodipodi:insensitive="true">
    <path
       inkscape:connector-curvature="0"
       d="m 301.95446,-211.52169 319.59108,0 c 101.4156,0 152.12339,0 206.7084,17.25959 59.59748,21.69173 106.54481,68.63899 128.23654,128.236542 C 973.75,-11.44076 973.75,39.267072 973.75,140.68273 l 0,319.59116 c 0,101.41566 0,152.12349 -17.25952,206.70829 -21.69173,59.59758 -68.63906,106.54477 -128.23654,128.23654 -54.58501,17.25959 -105.2928,17.25959 -206.7084,17.25959 l -319.59108,0 c -101.4156,0 -152.12339,0 -206.708396,-17.25959 C 35.648581,773.52695 -11.298747,726.57976 -32.99048,666.98218 -50.25,612.39738 -50.25,561.68955 -50.25,460.27389 l 0,-319.59116 c 0,-101.415658 0,-152.12349 17.25952,-206.708254 21.691733,-59.597546 68.639061,-106.544846 128.236544,-128.236576 54.585006,-17.25959 105.292796,-17.25959 206.708396,-17.25959 l 0,0"
       id="path5"
       style="fill:none;stroke:#000000;stroke-opacity:1" />
  </g>
  <g
     inkscape:groupmode="layer"
     id="layer6"
     inkscape:label="MASK"
     style="display:none"
     sodipodi:insensitive="true">
    <path
       style="color:#000000;display:inline;overflow:visible;visibility:visible;fill:#ffffff;fill-opacity:1;fill-rule:nonzero;stroke:none;stroke-width:2;marker:none;enable-background:accumulate"
       d="m -0.03515625,708.40625 c 0.05564213,38.75762 0.61632351,71.02215 3.48917125,100.18549 0.8757813,8.89038 2.0231286,17.50673 3.364698,25.91301 2.7291509,17.10087 6.251639,30.63186 10.624705,44.6288 0.983104,3.14664 2.343873,6.00913 3.546782,8.89844 4.954414,11.90016 10.441772,22.62502 16.75229,32.23106 7.482354,11.38984 16.590926,23.44234 26.690428,33.79613 11.282296,11.56636 22.163363,20.60638 34.238258,28.7856 7.753914,5.2523 15.167714,9.80978 23.655414,13.91931 3.34329,1.61873 6.78353,3.25751 10.45545,4.87471 6.01057,2.6472 12.64725,5.2405 20.38236,7.4312 16.33865,4.6274 37.83594,9.5058 66.67436,11.7859 26.04947,2.0596 58.07248,3.2184 99.20801,3.1754 l -319.08192625,0 z"
       id="path4146"
       inkscape:connector-curvature="0"
       sodipodi:nodetypes="csssssssssssccc" />
    <path
       style="color:#000000;display:inline;overflow:visible;visibility:visible;fill:#ffffff;fill-opacity:1;fill-rule:nonzero;stroke:none;stroke-width:2;marker:none;enable-background:accumulate"
       d="m 1024,708.375 c -0.028,33.52476 -0.3641,57.51886 -2.1872,86.13032 -2.1429,33.63123 -7.6767,62.03085 -16.1313,85.82727 -5.1582,14.5187 -11.40374,27.32387 -18.62968,38.55822 -10.39312,16.15845 -22.65083,31.16786 -36.89519,44.46448 -6.86448,6.40775 -13.96935,11.81612 -21.91877,17.50161 -10.37402,7.41958 -20.2254,13.06198 -32.1818,18.6383 -10.69022,4.9858 -23.165,9.4996 -39.90567,13.451 -11.58454,2.7344 -25.21186,5.3376 -41.70422,7.0737 -27.23282,2.8667 -62.17789,3.4121 -108.25867,3.9801 L 1024,1024 Z"
       id="path4146-5"
       inkscape:connector-curvature="0"
       sodipodi:nodetypes="cssssssssccc" />
    <path
       style="color:#000000;display:inline;overflow:visible;visibility:visible;fill:#ffffff;fill-opacity:1;fill-rule:nonzero;stroke:none;stroke-width:2;marker:none;enable-background:accumulate"
       d="m 1023.9571,318.26274 c 0.1837,-39.14081 -0.2997,-73.55855 -3.476,-103.94061 -1.4113,-13.49969 -3.8539,-26.31006 -5.9548,-38.18792 -3.6187,-20.45841 -10.1174,-38.44655 -17.2973,-52.70888 -2.12747,-4.22606 -3.90726,-7.55456 -5.77779,-10.81658 -1.49793,-2.61224 -3.05404,-5.18185 -4.89348,-8.13563 -1.96035,-3.14791 -3.87346,-6.195884 -5.993,-9.197124 C 974.88453,87.232938 968.40279,79.35023 961.65509,72.082687 951.58996,61.242143 940.4011,51.100793 927.77306,42.698049 909.73264,30.693887 894.47219,21.390417 866.08729,13.614807 853.18652,10.080839 837.40303,6.7460486 817.42751,4.3881848 790.09127,1.1614792 754.65731,0.08073128 706.1875,0 L 1024,0 Z"
       id="path4146-5-3"
       inkscape:connector-curvature="0"
       sodipodi:nodetypes="cssssssssssccc" />
    <path
       style="color:#000000;display:inline;overflow:visible;visibility:visible;fill:#ffffff;fill-opacity:1;fill-rule:nonzero;stroke:none;stroke-width:2;marker:none;enable-background:accumulate"
       d="M 0,318.48 C 0.04438432,264.21497 1.9515494,215.42652 8.7981727,178.4577 14.754939,146.29372 24.640519,123.97857 37.889606,103.37989 53.29125,79.434582 73.01483,58.195063 97.250401,42.030991 111.80438,32.324119 124.48551,25.310001 143.39137,18.055461 153.25339,14.271217 164.74156,11.469151 178.08885,8.8727346 208.3231,2.9913388 250.69975,-0.29260813 319.08193,0 L 0,0 Z"
       id="path4146-5-3-7"
       inkscape:connector-curvature="0"
       sodipodi:nodetypes="csssssccc" />
  </g>
  <g
     inkscape:groupmode="layer"
     id="layer4"
     inkscape:label="FULL MASK to BG"
     style="display:inline" />
  <g
     inkscape:groupmode="layer"
     id="layer2"
     inkscape:label="GUIDES"
     style="display:none"
     transform="translate(0,-2.2054443)"
     sodipodi:insensitive="true">
    <path
       style="color:#000000;display:inline;overflow:visible;visibility:visible;fill:none;stroke:#000000;stroke-width:2;stroke-linecap:butt;stroke-linejoin:miter;stroke-miterlimit:4;stroke-dasharray:none;stroke-dashoffset:0;stroke-opacity:1;marker:none;enable-background:accumulate"
       d="m 0.99801512,321.03518 0,386.27669"
       id="path4024"
       inkscape:connector-curvature="0" />
    <circle
       style="color:#000000;display:inline;overflow:visible;visibility:visible;fill:none;stroke:#000000;stroke-width:1.00571477;stroke-linecap:butt;stroke-linejoin:miter;stroke-miterlimit:4;stroke-dasharray:none;stroke-dashoffset:0;stroke-opacity:1;marker:none;enable-background:accumulate"
       id="path3129"
       transform="matrix(1.988799,0,0,1.988471,-407.91018,-80.585593)"
       cx="462.32144"
       cy="298.86218"
       r="138" />
    <circle
       style="color:#000000;display:inline;overflow:visible;visibility:visible;fill:none;stroke:#000000;stroke-width:0.62086099;stroke-linecap:butt;stroke-linejoin:miter;stroke-miterlimit:4;stroke-dasharray:none;stroke-dashoffset:0;stroke-opacity:1;marker:none;enable-background:accumulate"
       id="path3129-9"
       transform="matrix(3.2215081,0,0,3.2211587,-977.38931,-448.55899)"
       cx="462.32144"
       cy="298.86218"
       r="138" />
    <path
       style="color:#000000;display:inline;overflow:visible;visibility:visible;fill:none;stroke:#000000;stroke-width:2;stroke-linecap:butt;stroke-linejoin:miter;stroke-miterlimit:4;stroke-dasharray:none;stroke-dashoffset:0;stroke-opacity:1;marker:none;enable-background:accumulate"
       d="M 67.351921,69.489974 956.5625,958.70544"
       id="path4011"
       inkscape:connector-curvature="0"
       sodipodi:nodetypes="cc" />
    <path
       style="color:#000000;display:inline;overflow:visible;visibility:visible;fill:none;stroke:#000000;stroke-width:2;stroke-linecap:butt;stroke-linejoin:miter;stroke-miterlimit:4;stroke-dasharray:none;stroke-dashoffset:0;stroke-opacity:1;marker:none;enable-background:accumulate"
       d="m 0.99801467,707.31189 1022.00298533,0"
       id="path4028"
       inkscape:connector-curvature="0" />
    <path
       style="color:#000000;display:inline;overflow:visible;visibility:visible;fill:none;stroke:#000000;stroke-width:2;stroke-linecap:butt;stroke-linejoin:miter;stroke-miterlimit:4;stroke-dasharray:none;stroke-dashoffset:0;stroke-opacity:1;marker:none;enable-background:accumulate"
       d="m 0.99801467,513.69318 1022.00298533,0"
       id="path4030"
       inkscape:connector-curvature="0" />
    <path
       style="color:#000000;display:inline;overflow:visible;visibility:visible;fill:none;stroke:#000000;stroke-width:2;stroke-linecap:butt;stroke-linejoin:miter;stroke-miterlimit:4;stroke-dasharray:none;stroke-dashoffset:0;stroke-opacity:1;marker:none;enable-background:accumulate"
       d="m 0.99801467,321.0352 1022.00298533,0"
       id="path4032"
       inkscape:connector-curvature="0" />
    <path
       style="color:#000000;display:inline;overflow:visible;visibility:visible;fill:none;stroke:#000000;stroke-width:2;stroke-linecap:butt;stroke-linejoin:miter;stroke-miterlimit:4;stroke-dasharray:none;stroke-dashoffset:0;stroke-opacity:1;marker:none;enable-background:accumulate"
       d="m 319.08193,1026.2054 0,-1023.9999557"
       id="path4034"
       inkscape:connector-curvature="0"
       sodipodi:nodetypes="cc" />
    <path
       style="color:#000000;display:inline;overflow:visible;visibility:visible;fill:none;stroke:#000000;stroke-width:2;stroke-linecap:butt;stroke-linejoin:miter;stroke-miterlimit:4;stroke-dasharray:none;stroke-dashoffset:0;stroke-opacity:1;marker:none;enable-background:accumulate"
       d="m 511.68014,2.2054443 0,1023.9999557"
       id="path4036"
       inkscape:connector-curvature="0"
       sodipodi:nodetypes="cc" />
    <path
       style="color:#000000;display:inline;overflow:visible;visibility:visible;fill:none;stroke:#000000;stroke-width:2;stroke-linecap:butt;stroke-linejoin:miter;stroke-miterlimit:4;stroke-dasharray:none;stroke-dashoffset:0;stroke-opacity:1;marker:none;enable-background:accumulate"
       d="m 706.1875,1026.2054 0,-1023.9999557"
       id="path4038"
       inkscape:connector-curvature="0"
       sodipodi:nodetypes="cc" />
    <path
       style="color:#000000;display:inline;overflow:visible;visibility:visible;fill:none;stroke:#000000;stroke-width:2;stroke-linecap:butt;stroke-linejoin:miter;stroke-miterlimit:4;stroke-dasharray:none;stroke-dashoffset:0;stroke-opacity:1;marker:none;enable-background:accumulate"
       d="M 67.351921,958.70544 956.5625,69.489974"
       id="path4001"
       inkscape:connector-curvature="0"
       sodipodi:nodetypes="cc" />
    <path
       style="color:#000000;display:inline;overflow:visible;visibility:visible;fill:none;stroke:#000000;stroke-width:2;stroke-linecap:butt;stroke-linejoin:miter;stroke-miterlimit:4;stroke-dasharray:none;stroke-dashoffset:0;stroke-opacity:1;marker:none;enable-background:accumulate"
       d="m 956.5625,69.489974 0,889.215466"
       id="path4003"
       inkscape:connector-curvature="0"
       sodipodi:nodetypes="cc" />
    <path
       style="color:#000000;display:inline;overflow:visible;visibility:visible;fill:none;stroke:#000000;stroke-width:2;stroke-linecap:butt;stroke-linejoin:miter;stroke-miterlimit:4;stroke-dasharray:none;stroke-dashoffset:0;stroke-opacity:1;marker:none;enable-background:accumulate"
       d="m 67.351921,69.489974 889.210579,0"
       id="path4009"
       inkscape:connector-curvature="0"
       sodipodi:nodetypes="cc" />
    <path
       style="color:#000000;display:inline;overflow:visible;visibility:visible;fill:none;stroke:#000000;stroke-width:2;stroke-linecap:butt;stroke-linejoin:miter;stroke-miterlimit:4;stroke-dasharray:none;stroke-dashoffset:0;stroke-opacity:1;marker:none;enable-background:accumulate"
       d="m 67.351921,958.70544 0,-889.215466"
       id="path4007"
       inkscape:connector-curvature="0"
       sodipodi:nodetypes="cc" />
    <path
       style="color:#000000;display:inline;overflow:visible;visibility:visible;fill:none;stroke:#000000;stroke-width:2;stroke-linecap:butt;stroke-linejoin:miter;stroke-miterlimit:4;stroke-dasharray:none;stroke-dashoffset:0;stroke-opacity:1;marker:none;enable-background:accumulate"
       d="m 956.5625,958.70544 -889.210579,-3e-5"
       id="path4005"
       inkscape:connector-curvature="0"
       sodipodi:nodetypes="cc" />
    <circle
       style="color:#000000;display:inline;overflow:visible;visibility:visible;fill:none;stroke:#000000;stroke-width:1.42908275;stroke-linecap:butt;stroke-linejoin:miter;stroke-miterlimit:4;stroke-dasharray:none;stroke-dashoffset:0;stroke-opacity:1;marker:none;enable-background:accumulate"
       id="path3129-7"
       transform="matrix(1.4025564,0,0,1.3964479,-135.79717,96.569794)"
       cx="462.32144"
       cy="298.86218"
       r="138" />
  </g>
</svg>
